HIERARCHY
ROOT Hips
{
	OFFSET 0.000000 0.000000 0.000000 
	CHANNELS 6 Xposition Yposition Zposition Zrotation Yrotation Xrotation
	JOINT LeftUpLeg
	{
		OFFSET 1.363060 -1.794630 0.839290 
		CHANNELS 3 Zrotation Yrotation Xrotation
		JOINT LeftLeg
		{
			OFFSET 2.448110 -6.726130 0.000000 
			CHANNELS 3 Zrotation Yrotation Xrotation
			JOINT LeftFoot
			{
				OFFSET 2.562200 -7.039590 0.000000 
				CHANNELS 3 Zrotation Yrotation Xrotation
				JOINT LeftToeBase
				{
					OFFSET 0.157640 -0.433110 2.322550 
					CHANNELS 3 Zrotation Yrotation Xrotation
					End Site
					{
						OFFSET 0.000000 0.000000 0.000000 
					}
				}
			}
		}
	}
	JOINT RightUpLeg
	{
		OFFSET -1.305520 -1.794630 0.839290 
		CHANNELS 3 Zrotation Yrotation Xrotation
		JOINT RightLeg
		{
			OFFSET -2.542530 -6.985550 0.000000 
			CHANNELS 3 Zrotation Yrotation Xrotation
			JOINT RightFoot
			{
				OFFSET -2.568260 -7.056230 0.000000 
				CHANNELS 3 Zrotation Yrotation Xrotation
				JOINT RightToeBase
				{
					OFFSET -0.164730 -0.452590 2.363150 
					CHANNELS 3 Zrotation Yrotation Xrotation
					End Site
					{
						OFFSET 0.000000 0.000000 0.000000 
					}
				}
			}
		}
	}
	JOINT Spine
	{
		OFFSET 0.028270 2.035590 -0.193380 
		CHANNELS 3 Zrotation Yrotation Xrotation
		JOINT Spine1
		{
			OFFSET 0.056720 2.048850 -0.042750 
			CHANNELS 3 Zrotation Yrotation Xrotation
			JOINT Neck1
			{
				OFFSET -0.054170 1.746240 0.172020 
				CHANNELS 3 Zrotation Yrotation Xrotation
				JOINT Head
				{
					OFFSET 0.104070 1.761360 -0.123970 
					CHANNELS 3 Zrotation Yrotation Xrotation
					End Site
					{
						OFFSET 0.000000 0.000000 0.000000 
					}
				}
			}
			JOINT LeftArm
			{
				OFFSET 3.362410 1.200890 -0.311210 
				CHANNELS 3 Zrotation Yrotation Xrotation
				JOINT LeftForeArm
				{
					OFFSET 4.983000 -0.000000 -0.000000 
					CHANNELS 3 Zrotation Yrotation Xrotation
					JOINT LeftHand
					{
						OFFSET 3.483560 -0.000000 -0.000000 
						CHANNELS 3 Zrotation Yrotation Xrotation
						JOINT LeftHandIndex1
						{
							OFFSET 0.715260 -0.000000 -0.000000 
							CHANNELS 3 Zrotation Yrotation Xrotation
							End Site
							{
								OFFSET 0.000000 0.000000 0.000000 
							}
						}
					}
				}
			}
			JOINT RightArm
			{
				OFFSET -3.136600 1.374050 -0.404650 
				CHANNELS 3 Zrotation Yrotation Xrotation
				JOINT RightForeArm
				{
					OFFSET -5.241900 -0.000000 -0.000000 
					CHANNELS 3 Zrotation Yrotation Xrotation
					JOINT RightHand
					{
						OFFSET -3.444170 -0.000000 -0.000000 
						CHANNELS 3 Zrotation Yrotation Xrotation
						JOINT RightHandIndex1
						{
							OFFSET -0.622530 -0.000000 -0.000000 
							CHANNELS 3 Zrotation Yrotation Xrotation
							End Site
							{
								OFFSET 0.000000 0.000000 0.000000 
							}
						}
					}
				}
			}
		}
	}
}
MOTION
Frames: 16
Frame Time: 0.041667
-29.692609 17.496826 0.917559 33.004667 87.206042 27.576557 -17.842519 6.269046 15.168513 -1.667993 0.329504 1.116970 -0.440638 8.709458 -12.369557 0.087000 -1.902600 -5.236600 18.602947 -16.036265 19.298348 -0.453453 -2.767230 2.148325 -0.416162 -3.427972 -16.913338 -0.371800 -3.916200 10.841100 0.462723 1.767382 -2.107536 -1.739435 0.613339 1.627191 4.605022 2.845346 10.699220 -0.781500 1.684600 12.069400 -91.197101 -0.655296 42.368725 10.644489 -19.403966 -1.995048 -0.079483 0.642640 16.984507 -7.125000 0.000000 0.000000 90.772494 -2.980399 37.928067 -16.213296 30.470144 -3.931100 -0.055882 -2.874296 7.639017 7.125000 0.000000 0.000000 
-29.691589 17.492850 0.919802 31.725559 87.196971 26.323646 -17.676400 6.350595 15.132777 -1.661549 0.321389 1.114307 -0.429119 8.622346 -12.410977 0.061800 -1.603900 -4.412300 18.816623 -15.847795 19.334748 -0.454061 -2.737556 2.066830 -0.412194 -3.602450 -16.984836 -0.391400 -4.017100 11.124600 0.474235 1.750072 -2.109157 -1.734078 0.598537 1.628774 4.647973 2.902602 10.643165 -0.747500 1.709800 12.025700 -91.156254 -0.646282 41.837216 10.529946 -19.241353 -1.960099 -0.051948 0.640747 17.458926 -7.125000 0.000000 0.000000 90.760857 -2.946513 37.718524 -16.134000 30.383165 -3.909177 -0.067291 -2.870460 7.718616 7.125000 0.000000 0.000000 
-29.692099 17.485611 0.918170 30.573908 87.134351 25.383876 -17.651861 6.283450 14.958485 -1.665279 0.306769 1.075656 -0.435511 8.687817 -12.468522 0.044200 -1.356800 -3.731000 18.929239 -15.760168 19.052574 -0.464432 -2.750589 2.098266 -0.412620 -3.535170 -16.933534 -0.348000 -3.790300 10.487300 0.459115 1.780800 -2.130312 -1.832563 0.614142 1.646562 4.737721 2.887025 10.583918 -0.698000 1.713100 11.965300 -91.016637 -0.632217 41.630440 10.503291 -19.200608 -1.951931 -0.048652 0.638387 18.053089 -7.125000 0.000000 0.000000 90.823816 -2.941831 37.302982 -16.106087 30.370945 -3.895809 -0.044535 -2.864847 7.654054 7.125000 0.000000 0.000000 
-29.689754 17.492340 0.914908 30.273752 87.082138 24.956113 -17.685399 6.339958 15.151640 -1.665963 0.276844 1.000057 -0.441258 8.745895 -12.465587 0.048100 -1.414700 -3.890500 18.708474 -16.083025 19.102981 -0.459954 -2.771622 2.138244 -0.410119 -3.301882 -16.719327 -0.296400 -3.500600 9.675700 0.450739 1.813236 -2.118463 -1.874014 0.631522 1.604420 4.766945 2.865598 10.551414 -0.689900 1.710100 11.927200 -90.894270 -0.561597 41.857206 10.489123 -19.172943 -1.946310 -0.092207 0.645965 17.553950 -7.125000 0.000000 0.000000 90.800967 -2.990616 37.217926 -16.147215 30.414838 -3.911669 -0.047326 -2.861785 7.738027 7.125000 0.000000 0.000000 
-29.688836 17.493155 0.914296 30.628783 86.963962 25.295239 -17.629829 6.717197 14.997740 -1.648588 0.316714 1.090655 -0.418396 8.498410 -12.300587 0.071700 -1.728000 -4.754500 18.409860 -16.331117 19.004961 -0.462681 -2.816303 2.258873 -0.411748 -2.995313 -16.513153 -0.274900 -3.372700 9.318100 0.453569 1.822061 -2.114821 -1.795339 0.633284 1.608187 4.754915 2.884458 10.567161 -0.695500 1.716800 11.935700 -90.841016 -0.506462 41.856957 10.489028 -19.178059 -1.946348 -0.071390 0.637152 17.388289 -7.125000 0.000000 0.000000 90.714825 -2.956007 37.061698 -16.121880 30.368937 -3.900581 -0.048503 -2.849921 7.715677 7.125000 0.000000 0.000000 
-29.689550 17.491626 0.914704 31.315710 86.938234 26.020136 -17.534454 7.082520 14.763519 -1.627778 0.355939 1.180389 -0.395614 8.187276 -11.995907 0.074300 -1.758900 -4.839700 18.255851 -16.435716 18.910543 -0.466088 -2.843439 2.337256 -0.418176 -2.791971 -16.481161 -0.275800 -3.377700 9.332000 0.457098 1.768310 -2.120762 -1.730811 0.605587 1.620071 4.750136 2.974246 10.618498 -0.690100 1.757700 11.985600 -90.807544 -0.525482 41.566432 10.405492 -19.059068 -1.921795 -0.096331 0.651498 17.555367 -7.125000 0.000000 0.000000 90.603820 -2.977775 37.239420 -16.300243 30.556316 -3.970532 -0.040242 -2.870302 7.467874 7.125000 0.000000 0.000000 
-29.687103 17.492034 0.912767 31.364126 86.908128 26.049849 -17.574843 7.115986 14.828554 -1.628702 0.325967 1.096599 -0.403390 8.237033 -11.934531 0.093100 -1.968000 -5.417100 18.165565 -16.527414 18.912791 -0.465264 -2.854283 2.365042 -0.418892 -2.706560 -16.436769 -0.284800 -3.432400 9.485000 0.460364 1.727405 -2.116384 -1.697176 0.583283 1.627653 4.764634 2.976819 10.619819 -0.666800 1.755100 11.955900 -90.789339 -0.567241 41.177684 10.282109 -18.879149 -1.882887 -0.056766 0.640052 17.881232 -7.125000 0.000000 0.000000 90.509973 -2.987676 37.287395 -16.388876 30.649118 -4.004305 -0.036913 -2.874202 7.402220 7.125000 0.000000 0.000000 
-29.684554 17.492136 0.911238 31.467220 86.854784 26.146870 -17.771013 6.803146 15.027351 -1.651411 0.274434 0.956280 -0.435617 8.612988 -12.188348 0.094800 -1.985600 -5.466000 18.106988 -16.497832 18.963743 -0.468050 -2.828425 2.301166 -0.415380 -2.687548 -16.355913 -0.314700 -3.606500 9.972100 0.457632 1.715250 -2.112795 -1.703516 0.575721 1.657928 4.790465 3.046166 10.636070 -0.641700 1.787800 11.976900 -90.727382 -0.564238 41.003877 10.206142 -18.767763 -1.859425 -0.047426 0.640611 18.068284 -7.125000 0.000000 0.000000 90.485000 -2.930815 37.096333 -16.375790 30.638269 -4.004404 -0.036128 -2.874053 7.548491 7.125000 0.000000 0.000000 
-29.685166 17.491422 0.910218 31.791110 86.819511 26.499944 -17.944057 6.496905 15.110019 -1.672181 0.259097 0.910050 -0.467111 8.962960 -12.422472 0.093800 -1.975500 -5.438000 18.031799 -16.478421 18.936753 -0.474303 -2.817014 2.278375 -0.419037 -2.533356 -16.315298 -0.369500 -3.904400 10.807800 0.444875 1.705911 -2.116146 -1.751931 0.574002 1.658017 4.794784 3.037985 10.646763 -0.642000 1.786600 11.988300 -90.643899 -0.552081 40.841502 10.153618 -18.687909 -1.843272 -0.058618 0.642510 18.253248 -7.125000 0.000000 0.000000 90.543627 -2.832035 36.765363 -16.289441 30.557288 -3.977702 -0.043152 -2.865959 7.766856 7.125000 0.000000 0.000000 
-29.684860 17.491218 0.909097 31.474269 86.791314 26.174071 -17.787320 6.809059 14.859790 -1.653803 0.353960 1.159637 -0.443473 8.711526 -12.304012 0.119100 -2.225300 -6.128600 17.990645 -16.511480 18.911565 -0.477941 -2.838309 2.338372 -0.426818 -2.296155 -16.308290 -0.418900 -4.154300 11.511200 0.454926 1.668642 -2.117944 -1.722360 0.551162 1.643256 4.806901 3.111522 10.668734 -0.624900 1.819300 12.012500 -90.689282 -0.572040 40.298294 10.091646 -18.599424 -1.825978 -0.086610 0.640857 18.702664 -7.125000 0.000000 0.000000 90.529220 -2.713346 36.529224 -16.178386 30.422866 -3.929343 -0.046844 -2.839013 7.920255 7.125000 0.000000 0.000000 
-29.684656 17.486834 0.905834 31.927625 86.708040 26.732753 -17.759741 7.095536 14.439350 -1.637277 0.484631 1.481330 -0.410996 8.403899 -12.231466 0.144900 -2.452900 -6.759000 17.900509 -16.414126 18.776859 -0.486490 -2.869289 2.445258 -0.437532 -2.124519 -16.380802 -0.481700 -4.450600 12.347800 0.459043 1.635257 -2.134697 -1.646281 0.533151 1.641318 4.838044 3.197113 10.703528 -0.586500 1.856300 12.037300 -90.775692 -0.587740 39.721734 10.031425 -18.517395 -1.809611 -0.037432 0.637456 19.120989 -7.125000 0.000000 0.000000 90.431956 -2.697170 36.402729 -16.215441 30.443239 -3.932561 -0.031653 -2.823895 7.894778 7.125000 0.000000 0.000000 
-29.684962 17.490709 0.905834 33.715644 86.573699 28.452259 -17.987055 7.146762 14.402891 -1.638594 0.551684 1.625464 -0.389394 8.295954 -12.380323 0.141700 -2.426100 -6.684800 17.523670 -16.521813 18.815107 -0.485123 -2.908194 2.578064 -0.444414 -1.995030 -16.404078 -0.458400 -4.343000 12.043700 0.448302 1.637655 -2.138121 -1.560402 0.541961 1.575882 4.776307 3.231849 10.727249 -0.636100 1.871700 12.057600 -90.744835 -0.556676 39.697767 10.027475 -18.515895 -1.809524 -0.033246 0.639550 19.084374 -7.125000 0.000000 0.000000 90.376460 -2.708234 36.107982 -16.179344 30.378136 -3.916036 -0.035410 -2.805579 7.986575 7.125000 0.000000 0.000000 
-29.686084 17.488568 0.905834 33.954396 86.465800 28.779855 -18.162277 6.985820 14.362780 -1.652657 0.558251 1.625068 -0.406419 8.512962 -12.562023 0.159100 -2.569700 -7.083000 17.321761 -16.624173 18.561225 -0.492385 -2.990735 2.814406 -0.453567 -1.667677 -16.372613 -0.456800 -4.335700 12.023200 0.436996 1.675744 -2.150110 -1.556269 0.563664 1.561216 4.745344 3.235420 10.739922 -0.669600 1.877400 12.068900 -90.625224 -0.529197 39.985513 10.063988 -18.569770 -1.820401 -0.050915 0.642547 18.855914 -7.125000 0.000000 0.000000 90.363123 -2.695183 35.970880 -16.232862 30.440886 -3.944211 -0.034187 -2.818161 7.858800 7.125000 0.000000 0.000000 
-29.686084 17.486019 0.906140 33.062312 86.457165 27.934031 -18.214003 6.716711 14.447595 -1.669352 0.534409 1.570558 -0.439075 8.844667 -12.737326 0.209700 -2.948200 -8.134600 17.380502 -16.622987 18.389192 -0.498718 -3.056548 2.992881 -0.465393 -1.374517 -16.431062 -0.532600 -4.676500 12.988100 0.440150 1.683291 -2.159327 -1.565121 0.563772 1.537369 4.793523 3.221985 10.765099 -0.634500 1.875700 12.085200 -90.517149 -0.521604 40.148617 10.092422 -18.606397 -1.828826 -0.072825 0.647084 18.766010 -7.125000 0.000000 0.000000 90.345176 -2.703008 35.903351 -16.351647 30.577292 -3.990299 -0.024433 -2.827974 7.704727 7.125000 0.000000 0.000000 
-29.685778 17.484897 0.906344 32.835124 86.461842 27.697812 -18.216343 6.587852 14.437195 -1.672028 0.572395 1.677091 -0.429997 8.814136 -12.862027 0.197500 -2.861800 -7.894200 17.400665 -16.626838 18.303671 -0.498333 -3.112077 3.148160 -0.480317 -1.262394 -16.631264 -0.473400 -4.412900 12.241300 0.455326 1.652751 -2.176851 -1.495792 0.546434 1.449664 4.785796 3.247150 10.810039 -0.640700 1.889200 12.133900 -90.442618 -0.476874 40.370141 10.111023 -18.630909 -1.834358 -0.082388 0.647434 18.662690 -7.125000 0.000000 0.000000 90.282578 -2.704951 35.887634 -16.444405 30.662428 -4.024620 -0.017779 -2.833429 7.543322 7.125000 0.000000 0.000000 
-29.684962 17.481737 0.905834 31.902667 86.517702 26.720619 -17.995222 6.743746 14.322100 -1.652197 0.660132 1.931372 -0.373767 8.363528 -12.916899 0.147000 -2.470700 -6.808600 17.499365 -16.693122 18.160885 -0.493842 -3.233426 3.467549 -0.499509 -1.121417 -16.896403 -0.350100 -3.801800 10.519600 0.453751 1.608199 -2.147871 -1.601636 0.518228 1.553142 4.772864 3.273162 10.818360 -0.666000 1.908900 12.167400 -90.215157 -0.583530 40.835234 10.136256 -18.662046 -1.840426 -0.082347 0.644197 18.293720 -7.125000 0.000000 0.000000 90.300032 -2.540182 35.935608 -16.491701 30.738609 -4.048919 -0.016330 -2.846423 7.350622 7.125000 0.000000 0.000000 
